PathFileType	4	(x/y/z)	S09_PSF_T08
DataRate	CameraRate	NumFrames	NumMarkers	Units	OrigDataRate	OrigDataStartFrame	OrigNumFrames
240	240	10	51	mm	240	296	473
Frame#	Time	Sternum			R.Acromium			L.Acromium			Top.Head			R.ASIS			L.ASIS			R.PSIS			L.PSIS			R.Great.Tro			L.Great.Tro			R.Iliac.Crest			L.Iliac.Crest			V.Sacral			R.Thigh.Upper.Post			R.Thigh.Lower.Ant			R.Thigh.Lower.Post			R.Thigh.Upper.Ant			R.Knee.Lat			R.Knee.Med			R.Shank.Upper.Post			R.Shank.Lower.Ant			R.Shank.Lower.Post			R.Shank.Upper.Ant			R.Ankle.Lat			R.Ankle.Med			R.Heel.Upper			R.Heel.Med			R.Heel.Lat			R.Toe.Lat			R.Toe.Med			R.Toe.Tip			L.Thigh.Upper.Post			L.Thigh.Lower.Ant			L.Thigh.Lower.Post			L.Thigh.Upper.Ant			L.Knee.Lat			L.Knee.Med			L.Shank.Upper.Post			L.Shank.Lower.Ant			L.Shank.Lower.Post			L.Shank.Upper.Ant			L.Ankle.Lat			L.Ankle.Med			L.Heel.Upper			L.Heel.Med			L.Heel.Lat			L.Toe.Lat			L.Toe.Med			L.Toe.Tip			Cervical.Spine			Back			
		X1	Y1	Z1	X2	Y2	Z2	X3	Y3	Z3	X4	Y4	Z4	X5	Y5	Z5	X6	Y6	Z6	X7	Y7	Z7	X8	Y8	Z8	X9	Y9	Z9	X10	Y10	Z10	X11	Y11	Z11	X12	Y12	Z12	X13	Y13	Z13	X14	Y14	Z14	X15	Y15	Z15	X16	Y16	Z16	X17	Y17	Z17	X18	Y18	Z18	X19	Y19	Z19	X20	Y20	Z20	X21	Y21	Z21	X22	Y22	Z22	X23	Y23	Z23	X24	Y24	Z24	X25	Y25	Z25	X26	Y26	Z26	X27	Y27	Z27	X28	Y28	Z28	X29	Y29	Z29	X30	Y30	Z30	X31	Y31	Z31	X32	Y32	Z32	X33	Y33	Z33	X34	Y34	Z34	X35	Y35	Z35	X36	Y36	Z36	X37	Y37	Z37	X38	Y38	Z38	X39	Y39	Z39	X40	Y40	Z40	X41	Y41	Z41	X42	Y42	Z42	X43	Y43	Z43	X44	Y44	Z44	X45	Y45	Z45	X46	Y46	Z46	X47	Y47	Z47	X48	Y48	Z48	X49	Y49	Z49	X50	Y50	Z50	X51	Y51	Z51	

296	1.2292	-19.654	1152.9	329.53	-162.83	1399.8	483.91	-178	1392.3	168.8	-164.72	1704.2	319.97	-77.062	980.77	452.92	-65.436	991.63	207.82	-294.67	1012.9	360.44	-283.76	1009	271.6	-178.51	902.36	521.59	-124.26	902.86	133.76	-166.28	1064.3	490.85	-174.29	1082.2	168.27	-308.95	976	311.39	-260.04	667.2	481.67	-220.14	549.28	446.35	-291.74	582.67	451.53	-196.74	633.06	475.39	-273.72	484.78	435.32	-275.21	480.13	312.87	-424.04	368.24	438.55	-396.36	281.73	425.7	-464.7	304.38	427.48	-361.93	346.44	438.62	-539.65	131.21	406.52	-510.11	130.46	317.42	-611.01	127.33	355.34	-609.49	92.753	328.04	-617.41	98.765	392.24	-470.34	44.288	449.95	-417.67	38.103	346.45	-370.76	44.219	395.12	-103.05	637.37	173	6.216	573.45	176.85	-59.841	558.48	193.01	-35.421	649.41	152.74	17.826	498.25	185.23	27.507	513.82	320.59	15.983	358.42	175.14	106.32	294.8	184.73	42.284	285.88	179.78	79.379	367.58	180.75	136.35	105.76	196.66	156.61	108.54	289.02	86.527	58.777	253.34	106.58	40.927	286.04	92.881	30.241	226.23	252.06	74.456	162.97	291.02	97.358	266.75	327.87	129.56	204.03	-243.44	1446.2	339.8	-289.06	1175	332.04
297	1.2333	-13.551	1152.6	328.68	-157.35	1399.3	483.16	-172.26	1392	168.06	-159.4	1703.8	319.42	-70.755	980.17	452.28	-59.212	991.76	207.25	-288.41	1012.3	359.93	-277.5	1008.7	271	-172.21	901.42	520.87	-117.46	903.22	133.09	-159.91	1063.6	490.2	-168.02	1082.2	167.66	-302.68	975.56	310.77	-253.36	666.26	480.75	-213.34	548.35	445.48	-284.97	581.69	450.64	-190.03	632.17	474.46	-267.05	483.78	434.72	-268.72	479.23	312.2	-418.77	369.04	438.29	-392.16	282.11	425.42	-460.26	305.69	427.36	-356.97	346.41	438.19	-537.48	133.4	406.5	-507.72	132.27	317.51	-608.78	130.73	355.2	-607.75	96.225	327.77	-615.74	102.13	391.97	-469.89	44.854	449.84	-417.13	38.104	346.54	-370.53	44.07	395.2	-96.26	637.65	172.53	13.059	573.85	176.77	-53.044	558.8	192.64	-28.543	649.8	152.56	24.575	498.57	185.08	34.142	514.31	320.27	21.55	358.83	175.09	111.2	294.27	184.85	47.077	286.01	179.76	85.028	367.33	180.83	138.68	105.06	196.61	158.74	107.33	289.09	87.608	59.512	253.14	107.28	41.124	285.92	93.39	30.768	226.11	253.71	71.67	163.43	292.92	93.684	267.24	330.6	125.21	204.57	-237.84	1445.7	339.07	-283.11	1174.4	331.25
298	1.2375	-7.4335	1152.3	327.84	-151.88	1398.8	482.41	-166.51	1391.8	167.31	-154.06	1703.5	318.88	-64.436	979.63	451.63	-53.015	991.96	206.69	-282.14	1011.6	359.43	-271.25	1008.5	270.43	-165.85	900.51	520.13	-110.7	903.68	132.4	-153.51	1063	489.55	-161.75	1082.2	167.03	-296.39	975.18	310.16	-246.53	665.31	479.82	-206.35	547.43	444.61	-278.01	580.69	449.75	-183.15	631.31	473.52	-260.16	482.78	434.15	-262.03	478.32	311.57	-413.3	369.9	438.06	-387.78	282.55	425.18	-455.63	307.06	427.25	-351.82	346.42	437.8	-535.15	135.69	406.49	-505.14	134.18	317.62	-606.33	134.31	355.04	-605.8	99.897	327.46	-613.89	105.7	391.67	-469.42	45.481	449.72	-416.55	38.11	346.63	-370.31	43.921	395.29	-89.54	638.01	172.02	19.824	574.31	176.62	-46.318	559.2	192.24	-21.744	650.26	152.33	31.274	498.96	184.88	40.698	514.83	319.92	27.061	359.33	174.98	115.99	293.82	184.91	51.804	286.24	179.68	90.613	367.16	180.85	140.92	104.45	196.53	160.78	106.25	289.1	88.628	60.255	252.92	107.93	41.364	285.77	93.874	31.316	225.98	255.27	69.004	163.83	294.71	90.16	267.67	333.21	120.98	205.05	-232.26	1445.3	338.33	-277.15	1173.8	330.45
299	1.2417	-1.3048	1152.2	327	-146.41	1398.4	481.66	-160.77	1391.6	166.56	-148.72	1703.3	318.33	-58.11	979.17	450.98	-46.848	992.24	206.13	-275.86	1011	358.96	-265.04	1008.3	269.88	-159.43	899.64	519.4	-103.97	904.26	131.69	-147.08	1062.5	488.89	-155.48	1082.4	166.41	-290.1	974.85	309.57	-239.54	664.38	478.9	-199.15	546.53	443.75	-270.87	579.68	448.87	-176.11	630.48	472.58	-253.06	481.79	433.61	-255.14	477.41	310.97	-407.62	370.8	437.86	-383.2	283.05	424.99	-450.79	308.5	427.14	-346.46	346.47	437.46	-532.66	138.1	406.5	-502.35	136.18	317.77	-603.64	138.07	354.86	-603.63	103.77	327.12	-611.85	109.45	391.33	-468.91	46.175	449.59	-415.94	38.126	346.73	-370.11	43.77	395.38	-82.888	638.44	171.48	26.519	574.84	176.41	-39.657	559.66	191.8	-15.022	650.78	152.04	37.927	499.43	184.64	47.186	515.4	319.54	32.506	359.91	174.82	120.7	293.45	184.91	56.454	286.56	179.55	96.124	367.06	180.81	143.05	103.9	196.4	162.73	105.3	289.06	89.587	60.993	252.68	108.53	41.637	285.6	94.333	31.873	225.83	256.73	66.469	164.18	296.4	86.803	268.04	335.68	116.9	205.47	-226.68	1445	337.59	-271.18	1173.4	329.64
300	1.2458	4.83	1152.1	326.16	-140.96	1398.1	480.92	-155.02	1391.5	165.82	-143.36	1703.1	317.79	-51.782	978.77	450.31	-40.718	992.59	205.58	-269.58	1010.5	358.52	-258.85	1008.3	269.36	-152.94	898.81	518.65	-97.308	904.95	130.95	-140.63	1062	488.22	-149.22	1082.6	165.79	-283.82	974.56	309.01	-232.4	663.45	477.99	-191.75	545.65	442.92	-263.53	578.67	448.01	-168.89	629.69	471.65	-245.73	480.8	433.1	-248.02	476.49	310.41	-401.72	371.75	437.68	-378.42	283.61	424.85	-445.74	310.01	427.04	-340.9	346.56	437.18	-529.97	140.6	406.53	-499.34	138.27	317.95	-600.7	142.01	354.67	-601.21	107.85	326.74	-609.61	113.41	390.95	-468.37	46.942	449.44	-415.28	38.155	346.84	-369.91	43.614	395.48	-76.303	638.94	170.9	33.145	575.43	176.13	-33.057	560.2	191.31	-8.3719	651.36	151.68	44.537	499.96	184.36	53.62	516.03	319.13	37.878	360.56	174.59	125.32	293.16	184.86	61.016	286.95	179.35	101.55	367.02	180.72	145.07	103.43	196.24	164.58	104.47	288.98	90.484	61.715	252.43	109.09	41.936	285.42	94.769	32.43	225.66	258.11	64.071	164.46	297.98	83.627	268.35	338.01	112.99	205.83	-221.11	1444.7	336.84	-265.19	1173	328.81
301	1.25	10.965	1152.1	325.34	-135.51	1397.9	480.18	-149.28	1391.5	165.07	-138	1703	317.24	-45.456	978.45	449.63	-34.627	993.02	205.01	-263.31	1010	358.1	-252.7	1008.3	268.87	-146.41	898.03	517.91	-90.712	905.73	130.19	-134.16	1061.6	487.55	-142.97	1082.9	165.18	-277.54	974.33	308.46	-225.11	662.54	477.09	-184.14	544.8	442.13	-256	577.65	447.18	-161.51	628.94	470.74	-238.17	479.81	432.64	-240.67	475.55	309.9	-395.61	372.75	437.51	-373.44	284.24	424.76	-440.46	311.58	426.95	-335.13	346.71	436.96	-527.1	143.22	406.57	-496.08	140.45	318.17	-597.48	146.14	354.45	-598.54	112.14	326.33	-607.14	117.56	390.52	-467.79	47.788	449.29	-414.59	38.205	346.96	-369.73	43.453	395.59	-69.781	639.49	170.28	39.707	576.09	175.81	-26.517	560.79	190.8	-1.7917	652	151.28	51.098	500.54	184.06	60.012	516.71	318.7	43.165	361.27	174.3	129.82	292.92	184.75	65.481	287.41	179.1	106.88	367.04	180.58	146.97	103.01	196.05	166.32	103.75	288.86	91.322	62.413	252.18	109.61	42.254	285.23	95.182	32.976	225.49	259.38	61.815	164.67	299.45	80.639	268.6	340.19	109.26	206.12	-215.54	1444.5	336.1	-259.2	1172.7	327.98
302	1.2542	17.095	1152.2	324.52	-130.06	1397.8	479.45	-143.55	1391.5	164.33	-132.62	1703	316.7	-39.137	978.19	448.94	-28.578	993.53	204.45	-257.05	1009.5	357.71	-246.59	1008.4	268.42	-139.82	897.29	517.16	-84.197	906.6	129.41	-127.68	1061.3	486.88	-136.75	1083.3	164.58	-271.28	974.15	307.95	-217.67	661.63	476.22	-176.32	543.97	441.37	-248.28	576.61	446.38	-153.97	628.22	469.85	-230.39	478.83	432.22	-233.08	474.59	309.45	-389.26	373.8	437.37	-368.25	284.93	424.73	-434.95	313.21	426.86	-329.14	346.9	436.8	-524.01	145.94	406.63	-492.58	142.71	318.42	-593.96	150.44	354.22	-595.58	116.62	325.88	-604.43	121.92	390.05	-467.18	48.722	449.12	-413.86	38.279	347.08	-369.55	43.283	395.72	-63.326	640.1	169.63	46.202	576.79	175.43	-20.037	561.44	190.25	4.7188	652.69	150.82	57.604	501.18	183.73	66.374	517.45	318.25	48.36	362.02	173.94	134.21	292.74	184.6	69.84	287.93	178.79	112.11	367.1	180.39	148.75	102.65	195.85	167.97	103.13	288.7	92.102	63.079	251.93	110.09	42.583	285.04	95.572	33.505	225.31	260.56	59.705	164.83	300.8	77.846	268.79	342.21	105.72	206.35	-209.98	1444.4	335.36	-253.21	1172.4	327.14
303	1.2583	23.214	1152.4	323.71	-124.62	1397.7	478.72	-137.82	1391.6	163.59	-127.23	1703	316.15	-32.83	978.02	448.22	-22.573	994.11	203.87	-250.8	1009.1	357.35	-240.52	1008.6	268	-133.18	896.6	516.4	-77.773	907.54	128.61	-121.21	1061	486.21	-130.55	1083.8	163.98	-265.04	974.02	307.46	-210.08	660.73	475.38	-168.3	543.16	440.66	-240.37	575.57	445.63	-146.26	627.55	468.99	-222.37	477.85	431.86	-225.24	473.6	309.06	-382.69	374.9	437.23	-362.83	285.69	424.75	-429.21	314.92	426.78	-322.94	347.14	436.71	-520.71	148.76	406.71	-488.82	145.04	318.71	-590.13	154.91	353.96	-592.32	121.31	325.39	-601.46	126.48	389.53	-466.51	49.751	448.93	-413.07	38.385	347.22	-369.37	43.103	395.85	-56.94	640.74	168.94	52.627	577.53	175.02	-13.624	562.13	189.67	11.157	653.42	150.31	64.041	501.84	183.37	72.715	518.25	317.79	53.453	362.82	173.52	138.48	292.59	184.41	74.087	288.5	178.42	117.23	367.19	180.16	150.4	102.33	195.62	169.5	102.6	288.51	92.824	63.709	251.68	110.53	42.918	284.85	95.94	34.012	225.13	261.64	57.743	164.94	302.05	75.247	268.93	344.08	102.38	206.52	-204.42	1444.3	334.62	-247.22	1172.3	326.29
304	1.2625	29.315	1152.6	322.92	-119.19	1397.7	478.01	-132.1	1391.8	162.86	-121.83	1703.1	315.61	-26.54	977.91	447.49	-16.614	994.75	203.27	-244.59	1008.8	357.02	-234.49	1008.8	267.61	-126.5	895.96	515.63	-71.449	908.54	127.8	-114.76	1060.8	485.55	-124.39	1084.3	163.41	-258.83	973.93	306.99	-202.34	659.84	474.58	-160.08	542.39	440.01	-232.27	574.53	444.92	-138.4	626.92	468.16	-214.13	476.89	431.55	-217.14	472.59	308.74	-375.87	376.04	437.11	-357.2	286.51	424.83	-423.22	316.69	426.7	-316.51	347.43	436.68	-517.18	151.68	406.81	-484.78	147.45	319.03	-585.95	159.56	353.69	-588.74	126.19	324.86	-598.2	131.25	388.97	-465.79	50.884	448.73	-412.23	38.53	347.36	-369.19	42.911	396	-50.63	641.42	168.24	58.973	578.3	174.57	-7.2843	562.86	189.08	17.517	654.17	149.77	70.395	502.53	183.01	79.037	519.1	317.32	58.435	363.64	173.05	142.63	292.48	184.19	78.215	289.09	178	122.22	367.31	179.89	151.94	102.06	195.39	170.94	102.15	288.31	93.492	64.297	251.45	110.94	43.252	284.66	96.285	34.493	224.95	262.63	55.93	165	303.19	72.84	269.04	345.8	99.24	206.66	-198.88	1444.3	333.88	-241.23	1172.2	325.44
305	1.2667	35.393	1152.9	322.13	-113.75	1397.8	477.29	-126.38	1392.1	162.14	-116.42	1703.3	315.07	-20.27	977.88	446.73	-10.701	995.46	202.66	-238.4	1008.4	356.71	-228.52	1009.1	267.25	-119.78	895.37	514.86	-65.23	909.58	126.97	-108.33	1060.6	484.88	-118.28	1084.9	162.85	-252.65	973.88	306.56	-194.48	658.96	473.82	-151.67	541.65	439.43	-223.99	573.47	444.27	-130.38	626.33	467.39	-205.67	475.93	431.29	-208.78	471.55	308.5	-368.82	377.24	437	-351.34	287.41	424.96	-416.98	318.52	426.62	-309.85	347.78	436.71	-513.4	154.7	406.93	-480.47	149.91	319.39	-581.42	164.36	353.39	-584.81	131.26	324.29	-594.63	136.21	388.36	-465.01	52.131	448.51	-411.33	38.723	347.51	-369	42.703	396.16	-44.406	642.12	167.51	65.229	579.08	174.09	-1.0312	563.61	188.46	23.791	654.93	149.18	76.647	503.22	182.63	85.339	520	316.85	63.298	364.47	172.52	146.63	292.39	183.93	82.219	289.71	177.54	127.08	367.44	179.59	153.36	101.83	195.15	172.28	101.77	288.09	94.106	64.841	251.22	111.3	43.581	284.47	96.607	34.943	224.78	263.53	54.267	165.02	304.22	70.619	269.12	347.37	96.302	206.76	-193.34	1444.3	333.15	-235.25	1172.2	324.6
